<svg xmlns="http://www.w3.org/2000/svg" viewBox="0 0 800 600" fill="none">
  <rect width="800" height="600" rx="32" fill="#F8FAFC"/>
  <!-- Pipeline Kanban Columns -->
  <rect x="100" y="80" width="180" height="440" rx="16" fill="#F1F5F9"/>
  <rect x="120" y="100" width="100" height="16" rx="8" fill="#64748B"/>
  <rect x="115" y="130" width="150" height="90" rx="14" fill="#FFFFFF" stroke="#CBD5E1" stroke-width="2"/>
  <circle cx="140" cy="155" r="14" fill="#DBEAFE"/>
  <rect x="165" y="150" width="80" height="12" rx="6" fill="#1E293B"/>

  <rect x="310" y="80" width="180" height="440" rx="16" fill="#ECFDF5"/>
  <rect x="330" y="100" width="100" height="16" rx="8" fill="#10B981"/>
  <rect x="325" y="130" width="150" height="90" rx="14" fill="#FFFFFF" stroke="#10B981" stroke-width="2"/>
  <circle cx="350" cy="155" r="14" fill="#D1FAE5"/>
  <rect x="375" y="150" width="80" height="12" rx="6" fill="#1E293B"/>

  <rect x="520" y="80" width="180" height="440" rx="16" fill="#F1F5F9"/>
  <rect x="540" y="100" width="100" height="16" rx="8" fill="#64748B"/>
  <rect x="535" y="130" width="150" height="90" rx="14" fill="#FFFFFF" stroke="#CBD5E1" stroke-width="2"/>
</svg>
